<svg width="13" height="20" viewBox="0 0 13 20" fill="none" xmlns="http://www.w3.org/2000/svg">
<path d="M2.20799 19.2078L2.2061 19.206L0.794041 17.7939C0.400936 17.4008 0.403669 16.7691 0.79215 16.3848L0.794041 16.3829L6.81716 10.3598L7.17071 10.0062L6.81716 9.65269L0.794041 3.62958C0.400936 3.23647 0.403669 2.60482 0.792145 2.22048L0.79217 2.22051L0.796374 2.21625L2.20091 0.792985C2.59409 0.400941 3.22495 0.404017 3.60895 0.792145L3.61083 0.794041L12.1082 9.29139L12.1101 9.29325C12.5062 9.68521 12.5062 10.3169 12.1144 10.7086L3.61708 19.206C3.22398 19.5991 2.59233 19.5963 2.20799 19.2078Z" fill="#253529" stroke="black"/>
</svg>
